#N canvas 614 145 780 520 12;
#X obj 141 234 vline~;
#X obj 304 241 snapshot~;
#X obj 304 210 metro 100;
#X obj 304 174 loadbang;
#X floatatom 304 277 5 0 0 0 - - - 0;
#X obj 141 38 bng 15 250 50 0 empty empty empty 17 7 0 10 #fcfcfc #000000
#000000;
#X msg 403 201 \; pd dsp 1;
#X text 34 240 mod the pitch;
#X obj 141 8 inlet;
#X floatatom 159 106 5 0 0 0 - - - 0;
#X obj 141 166 f;
#X obj 124 320 noise~;
#X obj 124 353 *~;
#X obj 125 455 dac~;
#X msg 141 202 1 3 \, 0 \$1 3;
#X obj 124 382 *~ 0.3;
#X obj 124 406 hip~ 12000;
#X msg 178 131 60;
#X connect 0 0 1 0;
#X connect 0 0 12 1;
#X connect 1 0 4 0;
#X connect 2 0 1 0;
#X connect 3 0 2 0;
#X connect 3 0 6 0;
#X connect 3 0 17 0;
#X connect 5 0 10 0;
#X connect 8 0 5 0;
#X connect 9 0 10 1;
#X connect 10 0 14 0;
#X connect 11 0 12 0;
#X connect 12 0 15 0;
#X connect 14 0 0 0;
#X connect 15 0 16 0;
#X connect 16 0 13 0;
#X connect 16 0 13 1;
#X connect 17 0 10 1;
