#N canvas 234 222 1254 524 12;
#X floatatom 639 17 5 0 0 0 - - - 0;
#X obj 30 19 tgl 15 0 empty empty empty 17 7 0 10 #fcfcfc #000000 #000000
0 1;
#X obj 25 149 bd;
#X obj 395 160 sn;
#X obj 765 168 hh;
#X obj 785 193 hh;
#X obj 795 217 hh;
#X obj 815 242 hh;
#X obj 831 268 hh;
#X obj 851 293 hh;
#X obj 861 317 hh;
#X obj 881 342 hh;
#X obj 939 172 hh;
#X obj 959 197 hh;
#X obj 969 221 hh;
#X obj 989 246 hh;
#X obj 1005 272 hh;
#X obj 1025 297 hh;
#X obj 1035 321 hh;
#X obj 1055 346 hh;
#X obj 418 184 sn;
#X obj 435 209 sn;
#X obj 458 233 sn;
#X obj 473 262 sn;
#X obj 496 286 sn;
#X obj 513 311 sn;
#X obj 536 335 sn;
#X obj 563 181 sn;
#X obj 586 205 sn;
#X obj 603 230 sn;
#X obj 626 254 sn;
#X obj 641 283 sn;
#X obj 664 307 sn;
#X obj 681 332 sn;
#X obj 704 356 sn;
#X obj 35 177 bd;
#X obj 47 202 bd;
#X obj 57 230 bd;
#X obj 68 262 bd;
#X obj 78 290 bd;
#X obj 90 315 bd;
#X obj 100 343 bd;
#X obj 203 172 bd;
#X obj 213 200 bd;
#X obj 225 225 bd;
#X obj 235 253 bd;
#X obj 246 285 bd;
#X obj 256 313 bd;
#X obj 268 338 bd;
#X obj 278 366 bd;
#X obj 397 11 loadbang;
#X msg 397 35 120;
#X obj 25 80 sequencer bd;
#X obj 400 81 sequencer sn;
#X obj 765 81 sequencer hh;
#X text 347 422 go to each bd sn hh to try your sound design;
#X connect 0 0 52 1;
#X connect 0 0 54 1;
#X connect 0 0 53 1;
#X connect 1 0 52 0;
#X connect 1 0 54 0;
#X connect 1 0 53 0;
#X connect 50 0 51 0;
#X connect 50 0 1 0;
#X connect 51 0 0 0;
#X connect 52 0 2 0;
#X connect 52 1 35 0;
#X connect 52 2 36 0;
#X connect 52 3 37 0;
#X connect 52 4 38 0;
#X connect 52 5 39 0;
#X connect 52 6 40 0;
#X connect 52 7 41 0;
#X connect 52 8 42 0;
#X connect 52 9 43 0;
#X connect 52 10 44 0;
#X connect 52 11 45 0;
#X connect 52 12 46 0;
#X connect 52 13 47 0;
#X connect 52 14 48 0;
#X connect 52 15 49 0;
#X connect 53 0 3 0;
#X connect 53 1 20 0;
#X connect 53 2 21 0;
#X connect 53 3 22 0;
#X connect 53 4 23 0;
#X connect 53 5 24 0;
#X connect 53 6 25 0;
#X connect 53 7 26 0;
#X connect 53 8 27 0;
#X connect 53 9 28 0;
#X connect 53 10 29 0;
#X connect 53 11 30 0;
#X connect 53 12 31 0;
#X connect 53 13 32 0;
#X connect 53 14 33 0;
#X connect 53 15 34 0;
#X connect 54 0 4 0;
#X connect 54 1 5 0;
#X connect 54 2 6 0;
#X connect 54 3 7 0;
#X connect 54 4 8 0;
#X connect 54 5 9 0;
#X connect 54 6 10 0;
#X connect 54 7 11 0;
#X connect 54 8 12 0;
#X connect 54 9 13 0;
#X connect 54 10 14 0;
#X connect 54 11 15 0;
#X connect 54 12 16 0;
#X connect 54 13 17 0;
#X connect 54 14 18 0;
#X connect 54 15 19 0;
