#N canvas 468 302 780 520 12;
#X obj 141 345 osc~ 100;
#X obj 141 234 vline~;
#X obj 141 373 *~;
#X obj 200 478 dac~;
#X obj 141 38 bng 15 250 50 0 empty empty empty 17 7 0 10 #fcfcfc #000000
#000000;
#X text 34 240 mod the pitch;
#X text 178 376 also control the amp;
#X obj 141 8 inlet;
#X obj 368 314 noise~;
#X obj 368 347 *~;
#X obj 205 445 +~;
#X obj 446 231 vline~;
#X obj 141 306 +~ 80;
#X obj 141 282 *~ 80;
#X obj 173 420 *~ 0.3;
#X obj 368 376 *~ 0.4;
#X msg 141 202 1 3 \, 0 100 3;
#X msg 444 167 1 3 \, 0 60 3;
#X obj 368 400 hip~ 1000;
#X connect 0 0 2 0;
#X connect 1 0 2 1;
#X connect 1 0 13 0;
#X connect 2 0 14 0;
#X connect 4 0 17 0;
#X connect 4 0 16 0;
#X connect 7 0 4 0;
#X connect 8 0 9 0;
#X connect 9 0 15 0;
#X connect 10 0 3 0;
#X connect 10 0 3 1;
#X connect 11 0 9 1;
#X connect 12 0 0 0;
#X connect 13 0 12 0;
#X connect 14 0 10 0;
#X connect 15 0 18 0;
#X connect 16 0 1 0;
#X connect 17 0 11 0;
#X connect 18 0 10 0;
